PathFileType	4	(X/Y/Z)	H:\MAC\Cortex8\Teaching\Biomec1_N_2\Trimmed_walk2.trc
DataRate	CameraRate	NumFrames	NumMarkers	Units	OrigDataRate	OrigDataStartFrame	OrigNumFrames
150.00	150.00	       11	28	mm	150.00	116	       184
Frame#	Time	R.ASIS			L.ASIS			R.PSIS			L.PSIS			L.Iliac.Crest			R.Iliac.Crest			R.GTR			R.Knee			R.HF			R.TT			R.Ankle			R.Heel			R.MT1			R.MT5			L.GTR			L.Knee			L.HF			L.TT			L.Ankle			L.Heel			L.MT1			L.MT5			R.Knee.Medial			R.Ankle.Medial			R.MT2			L.Knee.Medial			L.Ankle.Medial			L.MT2			V_Mid_ASIS			V_Mid_PSIS			V_Pelvis_Origin			V_R.Hip_JC			V_R.Knee_JC_Static			V_R.TT			V_R.Ankle_JC_Static			V_L.Hip_JC			V_Mid_Hip			V_R.MT2_Static			V_R.Knee.Medial			V_R.Ankle.Medial			V_R.TT			V_L.Knee_JC_Static			V_L.TT			V_L.Ankle_JC_Static			V_L.MT2_Static			V_R.Knee_JC			V_R.Ankle_JC			V_L.Knee_JC			V_L.Ankle_JC			V_R.TT_KJC_Static			V_L.TT_KJC_Static			V_R.TT_KJC			V_L.TT_KJC			V_R.MT2			V_L.MT2			
		X1	Y1	Z1	X2	Y2	Z2	X3	Y3	Z3	X4	Y4	Z4	X5	Y5	Z5	X6	Y6	Z6	X7	Y7	Z7	X8	Y8	Z8	X9	Y9	Z9	X10	Y10	Z10	X11	Y11	Z11	X12	Y12	Z12	X13	Y13	Z13	X14	Y14	Z14	X15	Y15	Z15	X16	Y16	Z16	X17	Y17	Z17	X18	Y18	Z18	X19	Y19	Z19	X20	Y20	Z20	X21	Y21	Z21	X22	Y22	Z22	X23	Y23	Z23	X24	Y24	Z24	X25	Y25	Z25	X26	Y26	Z26	X27	Y27	Z27	X28	Y28	Z28	

116.0	0.767	-314.28439	1004.76154	-1407.95471	-561.73944	969.34552	-1370.7533	-348.50046	1003.38574	-1194.01672	-424.07648	989.84692	-1178.01868	-589.92755	1027.62695	-1273.15161	-261.94714	1051.17212	-1337.19666	-232.04561	922.4494	-1357.52246	-284.25027	500.72635	-1382.40576	-291.70474	436.35532	-1399.28418	-353.6489	433.16074	-1449.47424	-337.95105	80.38454	-1371.42676	-393.54422	52.14058	-1305.92358	-390.91266	50.38552	-1532.58594	-307.21036	50.89404	-1501.34399	-608.37634	860.37543	-1281.48486	-616.38873	496.7514	-1309.5791	-623.79901	445.51712	-1285.2887	-571.08655	395.09775	-1326.25	-567.55048	277.84906	-967.42047	-503.30646	315.79932	-919.55762	-512.48022	121.21852	-1023.26862	-597.80658	139.11064	-994.6004	-421.43417	492.75894	-1378.57471	-426.05774	94.98112	-1405.05566	-354.42255	61.68213	-1527.72668	-483.81567	465.67255	-1334.34827	-486.04327	253.75418	-1013.44598	-549.2442	131.76309	-1024.55103
117.0	0.773	-312.59229	1005.65094	-1414.24573	-560.33508	971.23218	-1378.16675	-348.32214	1004.74329	-1200.47131	-423.93793	991.7442	-1184.66431	-589.60492	1030.16821	-1280.97742	-261.53293	1051.92249	-1342.88562	-231.06999	922.61688	-1362.45569	-283.76804	501.01694	-1383.67834	-291.2493	436.49521	-1400.01953	-353.50644	433.14594	-1450.25037	-337.94235	80.39793	-1371.31653	-393.55023	52.11982	-1305.89563	-390.86584	50.43387	-1532.47693	-307.11725	50.92674	-1501.20825	-608.7489	862.9115	-1290.13721	-616.00452	499.10968	-1324.51978	-623.52148	447.8931	-1301.05005	-571.18927	397.79245	-1342.73438	-567.35254	277.7326	-984.78748	-503.07321	314.40103	-935.50177	-512.73187	122.00098	-1043.27722	-598.06512	139.93715	-1014.97186	-421.00449	493.12769	-1379.6521	-426.03174	95.04095	-1405.01965	-354.3855	61.7319	-1527.5741	-483.82803	468.26831	-1350.22375	-485.47275	254.1055	-1030.62451	-549.46313	132.91946	-1044.60083
118.0	0.78	-310.87045	1006.36414	-1420.48547	-558.95917	973.0835	-1385.54431	-348.11008	1006.01276	-1206.91895	-423.97656	993.33344	-1191.47998	-588.99274	1032.71765	-1289.07507	-260.05814	1052.59644	-1349.62976	-230.1897	922.73206	-1367.3269	-283.25238	501.27435	-1384.88721	-290.78125	436.62521	-1400.64294	-353.31967	433.09616	-1451.11572	-337.97061	80.41849	-1371.19556	-393.5824	52.09311	-1305.8728	-390.79172	50.45705	-1532.35364	-307.00253	50.9666	-1501.09875	-609.11224	865.85229	-1299.0304	-615.59589	501.51633	-1339.27258	-623.22308	450.31668	-1316.7666	-571.25879	400.64157	-1359.08472	-567.13287	277.10437	-1002.8739	-503.10876	312.37747	-951.60999	-512.98065	122.4636	-1063.93152	-598.57837	140.21608	-1035.98303	-420.61008	493.57462	-1380.84302	-426.01083	95.08099	-1404.99353	-354.34689	61.77773	-1527.42175	-483.90387	470.91003	-1365.98987	-485.12585	253.94426	-1048.11426	-549.60901	133.6115	-1065.3595
119.0	0.787	-309.1427	1006.9704	-1426.70288	-557.57117	974.93646	-1392.87695	-348.09061	1007.15558	-1213.32043	-424.03534	995.0296	-1198.2262	-588.30762	1035.28833	-1297.47229	-259.09061	1053.03833	-1355.8407	-229.30841	922.81732	-1372.07031	-282.83344	501.52908	-1385.88525	-290.26797	436.72296	-1401.01135	-352.98264	433.01941	-1451.83716	-338.0011	80.44225	-1371.0824	-393.61151	52.0901	-1305.85034	-390.72021	50.47297	-1532.24658	-307.07346	51.40652	-1500.87781	-609.22882	869.01202	-1308.31787	-615.14728	503.96198	-1353.9696	-622.83893	452.77432	-1332.38208	-571.19781	403.54459	-1375.47253	-566.90021	275.48804	-1020.31702	-502.82965	309.3829	-968.07202	-513.12854	122.45577	-1085.07117	-598.79205	139.96951	-1057.30469	-420.21262	494.03171	-1382.04126	-426.00366	95.1189	-1404.96899	-354.2951	61.79586	-1527.29175	-483.99484	473.80164	-1381.49646	-484.80652	253.18286	-1066.12927	-549.41626	133.2796	-1087.16187
120.0	0.793	-307.44055	1007.48322	-1432.82446	-556.18225	976.73828	-1400.33105	-348.1105	1008.17517	-1219.71606	-424.20572	996.56342	-1204.92188	-587.73212	1037.66919	-1305.46851	-258.57428	1053.38599	-1361.55798	-228.52676	922.87128	-1376.90894	-282.37982	501.70538	-1386.72498	-289.71472	436.76343	-1401.23071	-352.33954	432.85913	-1452.578	-338.0524	80.47974	-1370.96802	-393.64008	52.0869	-1305.83691	-390.63208	50.46424	-1532.14661	-306.95908	51.39918	-1500.81763	-609.43707	872.11853	-1317.9314	-614.67139	506.51218	-1368.50244	-622.38275	455.19998	-1347.87366	-571.39215	406.81992	-1391.2926	-566.6189	273.17941	-1038.14954	-502.65164	305.77716	-984.55414	-513.28577	122.10914	-1106.80811	-598.98462	139.25758	-1079.01489	-419.92416	494.30124	-1383.97913	-426.00012	95.13392	-1404.97839	-354.23792	61.78902	-1527.19971	-483.86066	476.66721	-1396.92273	-484.65155	251.96748	-1084.34534	-549.51361	133.09853	-1108.75964
121.0	0.8	-305.78748	1007.89478	-1438.99573	-554.89862	978.5014	-1407.79456	-348.17633	1009.15668	-1226.01917	-424.41971	998.03699	-1211.57837	-587.34894	1039.90662	-1313.30042	-257.14807	1053.85645	-1367.98438	-227.93407	922.94147	-1381.9375	-281.90826	501.79236	-1387.3739	-289.14551	436.70032	-1401.39001	-351.37521	432.67917	-1453.51025	-338.09842	80.5333	-1370.87476	-393.67596	52.10084	-1305.84082	-390.53485	50.45171	-1532.06335	-306.81894	51.39475	-1500.78833	-609.65723	875.1463	-1327.77136	-614.08685	509.06241	-1382.97949	-621.87244	457.60699	-1363.28125	-571.1463	409.85977	-1407.48523	-566.33325	270.23895	-1056.05151	-502.59119	301.42361	-1001.4588	-513.32758	121.36995	-1129.00842	-599.09845	138.0977	-1101.14172	-419.6225	494.66022	-1385.47583	-426.00064	95.14613	-1405.00574	-354.15237	61.77451	-1527.10999	-483.63766	479.73975	-1412.02368	-484.38492	250.31526	-1102.77344	-549.56177	132.59685	-1130.89722
122.0	0.807	-304.21387	1008.26489	-1445.13171	-553.67401	980.229	-1415.23108	-348.25082	1009.96021	-1232.36572	-424.71109	999.41833	-1218.12158	-586.68231	1042.02332	-1321.11816	-256.73587	1054.08447	-1373.34998	-226.93343	922.9256	-1386.29321	-281.41025	501.8302	-1387.90686	-288.88574	436.62427	-1401.49377	-350.03342	432.5896	-1454.44177	-338.1608	80.57845	-1370.81177	-393.72134	52.12472	-1305.84998	-390.40799	50.42915	-1531.98547	-306.65598	51.37721	-1500.75964	-609.79236	878.05743	-1337.73511	-613.53186	511.66327	-1397.42407	-621.34631	459.99191	-1378.47668	-570.7887	412.91928	-1423.49744	-566.12421	266.70398	-1074.29639	-502.58365	296.37192	-1018.66901	-513.2254	120.1458	-1151.6427	-599.09863	136.52756	-1123.74561	-419.11197	494.79352	-1387.20471	-426.052	95.15588	-1405.08813	-354.04395	61.73989	-1527.00964	-483.34964	483.21307	-1426.35852	-484.07144	247.99168	-1121.73438	-549.44214	131.58005	-1153.32874
123.0	0.813	-302.66376	1008.41058	-1451.24121	-552.5379	981.84106	-1422.63025	-348.56393	1010.74005	-1238.67529	-424.94333	1000.37482	-1224.93274	-585.81964	1044.09448	-1329.07129	-255.30595	1054.3855	-1380.18103	-226.1832	922.92981	-1390.98816	-280.8844	501.84979	-1388.47681	-288.00586	436.49023	-1401.81372	-348.69806	432.20059	-1455.29602	-338.24411	80.64014	-1370.72266	-393.75601	52.14435	-1305.86255	-390.24966	50.3636	-1531.84021	-306.48331	51.34655	-1500.73254	-609.91016	880.9599	-1347.63062	-612.98456	514.29987	-1411.6897	-620.66479	462.11264	-1393.28577	-570.32391	415.92908	-1439.40515	-565.96497	263.384	-1093.71655	-502.68967	290.70844	-1036.17688	-513.06903	118.6789	-1174.66125	-599.05182	134.47227	-1146.63281	-418.5903	494.82675	-1389.21765	-426.09106	95.1479	-1405.17407	-353.95035	61.68976	-1526.94128	-482.96103	486.66608	-1440.349	-483.58511	245.55942	-1140.34314	-549.24768	130.24239	-1176.21533
124.0	0.82	-301.26581	1008.59467	-1457.25842	-551.47278	983.31213	-1430.02954	-348.75107	1011.54211	-1244.97437	-425.28647	1001.51288	-1231.4541	-585.21106	1045.90918	-1336.67944	-254.48969	1054.7052	-1385.92639	-225.35393	923.01929	-1395.11353	-280.37839	501.88348	-1389.26514	-287.47711	436.36432	-1402.23108	-347.36325	431.76654	-1456.14294	-338.34317	80.69806	-1370.66113	-393.91083	52.17667	-1306.09045	-390.09433	50.33994	-1531.73438	-306.30478	51.31218	-1500.71912	-609.8916	883.6828	-1357.2312	-612.35522	516.87531	-1425.79272	-619.68561	464.16891	-1408.64941	-569.68597	418.88199	-1455.08911	-565.84723	258.97552	-1112.87744	-503.07205	284.22214	-1054.24268	-512.81451	116.86968	-1198.00391	-598.91028	132.08986	-1169.94714	-418.09857	494.66714	-1391.2489	-426.14038	95.12684	-1405.25598	-353.83429	61.64028	-1526.89319	-482.46024	490.28284	-1453.85303	-483.39111	242.28226	-1159.80151	-549.00702	128.57135	-1199.29163
125.0	0.827	-299.95892	1008.72217	-1463.30408	-550.4093	984.6485	-1437.38428	-349.01959	1012.25549	-1251.20544	-425.7168	1002.43121	-1238.12183	-584.8222	1047.47327	-1343.99683	-253.68213	1054.87146	-1391.71643	-224.77031	923.01184	-1400.26624	-279.89777	501.90619	-1390.2644	-287.00723	436.20206	-1402.86218	-346.0679	431.2832	-1457.08594	-338.46008	80.76878	-1370.58398	-393.97571	52.19796	-1306.12073	-389.94736	50.30296	-1531.6582	-306.22974	51.37128	-1500.61121	-610.00836	886.24347	-1366.65161	-611.67169	519.31018	-1439.75513	-618.94409	466.13864	-1423.40088	-568.92188	421.85083	-1470.78796	-565.82434	254.00809	-1132.46497	-503.36542	277.39597	-1072.48438	-512.53906	114.78298	-1221.68384	-598.62708	128.74969	-1193.10046	-417.60858	494.5105	-1393.31799	-426.19394	95.08361	-1405.32483	-353.69803	61.5787	-1526.86096	-481.90683	494.05365	-1466.96423	-483.3017	238.56161	-1179.39551	-548.64508	126.49047	-1222.78833
126.0	0.833	-298.72086	1008.69391	-1469.30188	-549.5387	985.87067	-1444.73718	-349.32382	1012.76062	-1257.4613	-425.88651	1003.39935	-1244.22839	-584.31152	1048.89893	-1351.26208	-253.42885	1054.88098	-1395.86963	-224.10381	922.95581	-1405.03052	-279.3819	501.86188	-1391.51855	-286.54837	436.00113	-1403.74341	-344.94858	430.80511	-1458.07654	-338.58374	80.83014	-1370.51953	-393.82098	52.23551	-1305.95044	-389.63992	50.19127	-1531.48474	-306.0668	51.3122	-1500.63171	-610.07104	888.51898	-1375.91321	-610.97949	521.64734	-1453.59656	-618.22931	467.94446	-1438.03479	-567.97461	424.74341	-1486.28296	-565.94012	248.59148	-1152.22351	-503.76682	270.06168	-1091.03809	-512.18768	112.40143	-1245.64355	-598.46704	125.61271	-1217.18762	-417.04395	494.16861	-1395.51611	-426.25385	95.02124	-1405.42163	-353.55185	61.51356	-1526.84973	-481.31516	497.82263	-1479.33997	-483.19705	234.3786	-1199.29346	-548.29785	124.14817	-1246.62793
